<?xml version="1.0" encoding="utf-8"?>
<!-- Generator: Adobe Illustrator 14.0.0, SVG Export Plug-In . SVG Version: 6.00 Build 43363)  -->
<!DOCTYPE svg PUBLIC "-//W3C//DTD SVG 1.1//EN" "http://www.w3.org/Graphics/SVG/1.1/DTD/svg11.dtd">
<svg version="1.1" id="Layer_1" xmlns="http://www.w3.org/2000/svg" xmlns:xlink="http://www.w3.org/1999/xlink" x="0px" y="0px"
	 width="81.333px" height="66.285px" viewBox="0 0 81.333 66.285" style="enable-background:new 0 0 81.333 66.285;"
	 xml:space="preserve">
<style type="text/css">
<![CDATA[
	.st0{fill:none;stroke:#000000;}
	.st1{display:inline;fill:none;stroke:#000000;}
	.st2{display:none;}
]]>
</style>
<g id="Layer_1_1_" class="st2">
	<path class="st1" d="M78.167,60.975c0,1.197-0.949,2.168-2.123,2.168c-17.688,0-53.065,0-70.754,0
		c-1.172,0-2.123-0.971-2.123-2.168c0-13.916,0-41.747,0-55.662c0-1.198,0.951-2.17,2.123-2.17c17.688,0,53.065,0,70.754,0
		c1.174,0,2.123,0.972,2.123,2.17C78.167,19.228,78.167,47.059,78.167,60.975z"/>
</g>
<g id="Layer_2">
	<path class="st0" d="M64.988,52.376c0,2.167-9.907-1.313-11.862-3.778C50.62,45.438,45.961,30.517,43,28.118
		c-1.563-1.265-3.542-1.224-5,0c-2.918,2.447-6.793,17.317-9.205,20.479c-1.998,2.614-12.451,5.945-12.451,3.778L27.709,31.32
		c1.016-2.117,9.721-18.113,11.658-18.109c0.627,0.002,1.881-0.001,2.508,0c1.936,0.005,11.315,18.109,11.315,18.109L64.988,52.376z
		"/>
</g>
</svg>
